<?xml version="1.0" encoding="utf-8" standalone="no"?>
<!DOCTYPE svg PUBLIC "-//W3C//DTD SVG 1.1//EN"
  "http://www.w3.org/Graphics/SVG/1.1/DTD/svg11.dtd">
<svg xmlns:xlink="http://www.w3.org/1999/xlink" width="198.48pt" height="280.56pt" viewBox="0 0 198.48 280.56" xmlns="http://www.w3.org/2000/svg" version="1.1">
 <metadata>
  <rdf:RDF xmlns:dc="http://purl.org/dc/elements/1.1/" xmlns:cc="http://creativecommons.org/ns#" xmlns:rdf="http://www.w3.org/1999/02/22-rdf-syntax-ns#">
   <cc:Work>
    <dc:type rdf:resource="http://purl.org/dc/dcmitype/StillImage"/>
    <dc:date>2024-05-31T14:49:39.629411</dc:date>
    <dc:format>image/svg+xml</dc:format>
    <dc:creator>
     <cc:Agent>
      <dc:title>Matplotlib v3.8.3, https://matplotlib.org/</dc:title>
     </cc:Agent>
    </dc:creator>
   </cc:Work>
  </rdf:RDF>
 </metadata>
 <defs>
  <style type="text/css">*{stroke-linejoin: round; stroke-linecap: butt}</style>
 </defs>
 <g id="figure_1">
  <g id="patch_1">
   <path d="M 0 280.56 
L 198.48 280.56 
L 198.48 0 
L 0 0 
z
" style="fill: #ffffff"/>
  </g>
  <g id="axes_1">
   <g id="patch_2">
    <path d="M 24.81 249.6984 
L 178.632 249.6984 
L 178.632 33.6672 
L 24.81 33.6672 
z
" style="fill: #ffffff"/>
   </g>
   <g id="matplotlib.axis_1">
    <g id="xtick_1">
     <g id="line2d_1">
      <defs>
       <path id="m5d64412560" d="M 0 0 
L 0 3.5 
" style="stroke: #000000; stroke-width: 0.8"/>
      </defs>
      <g>
       <use xlink:href="#m5d64412560" x="55.162836" y="249.6984" style="stroke: #000000; stroke-width: 0.8"/>
      </g>
     </g>
     <g id="text_1">
      <!-- 0.5 -->
      <g transform="translate(47.211274 264.296838) scale(0.1 -0.1)">
       <defs>
        <path id="DejaVuSans-30" d="M 2034 4250 
Q 1547 4250 1301 3770 
Q 1056 3291 1056 2328 
Q 1056 1369 1301 889 
Q 1547 409 2034 409 
Q 2525 409 2770 889 
Q 3016 1369 3016 2328 
Q 3016 3291 2770 3770 
Q 2525 4250 2034 4250 
z
M 2034 4750 
Q 2819 4750 3233 4129 
Q 3647 3509 3647 2328 
Q 3647 1150 3233 529 
Q 2819 -91 2034 -91 
Q 1250 -91 836 529 
Q 422 1150 422 2328 
Q 422 3509 836 4129 
Q 1250 4750 2034 4750 
z
" transform="scale(0.015625)"/>
        <path id="DejaVuSans-2e" d="M 684 794 
L 1344 794 
L 1344 0 
L 684 0 
L 684 794 
z
" transform="scale(0.015625)"/>
        <path id="DejaVuSans-35" d="M 691 4666 
L 3169 4666 
L 3169 4134 
L 1269 4134 
L 1269 2991 
Q 1406 3038 1543 3061 
Q 1681 3084 1819 3084 
Q 2600 3084 3056 2656 
Q 3513 2228 3513 1497 
Q 3513 744 3044 326 
Q 2575 -91 1722 -91 
Q 1428 -91 1123 -41 
Q 819 9 494 109 
L 494 744 
Q 775 591 1075 516 
Q 1375 441 1709 441 
Q 2250 441 2565 725 
Q 2881 1009 2881 1497 
Q 2881 1984 2565 2268 
Q 2250 2553 1709 2553 
Q 1456 2553 1204 2497 
Q 953 2441 691 2322 
L 691 4666 
z
" transform="scale(0.015625)"/>
       </defs>
       <use xlink:href="#DejaVuSans-30"/>
       <use xlink:href="#DejaVuSans-2e" x="63.623047"/>
       <use xlink:href="#DejaVuSans-35" x="95.410156"/>
      </g>
     </g>
    </g>
    <g id="xtick_2">
     <g id="line2d_2">
      <g>
       <use xlink:href="#m5d64412560" x="86.030127" y="249.6984" style="stroke: #000000; stroke-width: 0.8"/>
      </g>
     </g>
     <g id="text_2">
      <!-- 1.0 -->
      <g transform="translate(78.078565 264.296838) scale(0.1 -0.1)">
       <defs>
        <path id="DejaVuSans-31" d="M 794 531 
L 1825 531 
L 1825 4091 
L 703 3866 
L 703 4441 
L 1819 4666 
L 2450 4666 
L 2450 531 
L 3481 531 
L 3481 0 
L 794 0 
L 794 531 
z
" transform="scale(0.015625)"/>
       </defs>
       <use xlink:href="#DejaVuSans-31"/>
       <use xlink:href="#DejaVuSans-2e" x="63.623047"/>
       <use xlink:href="#DejaVuSans-30" x="95.410156"/>
      </g>
     </g>
    </g>
    <g id="xtick_3">
     <g id="line2d_3">
      <g>
       <use xlink:href="#m5d64412560" x="116.897418" y="249.6984" style="stroke: #000000; stroke-width: 0.8"/>
      </g>
     </g>
     <g id="text_3">
      <!-- 1.5 -->
      <g transform="translate(108.945856 264.296838) scale(0.1 -0.1)">
       <use xlink:href="#DejaVuSans-31"/>
       <use xlink:href="#DejaVuSans-2e" x="63.623047"/>
       <use xlink:href="#DejaVuSans-35" x="95.410156"/>
      </g>
     </g>
    </g>
    <g id="xtick_4">
     <g id="line2d_4">
      <g>
       <use xlink:href="#m5d64412560" x="147.764709" y="249.6984" style="stroke: #000000; stroke-width: 0.8"/>
      </g>
     </g>
     <g id="text_4">
      <!-- 2.0 -->
      <g transform="translate(139.813147 264.296838) scale(0.1 -0.1)">
       <defs>
        <path id="DejaVuSans-32" d="M 1228 531 
L 3431 531 
L 3431 0 
L 469 0 
L 469 531 
Q 828 903 1448 1529 
Q 2069 2156 2228 2338 
Q 2531 2678 2651 2914 
Q 2772 3150 2772 3378 
Q 2772 3750 2511 3984 
Q 2250 4219 1831 4219 
Q 1534 4219 1204 4116 
Q 875 4013 500 3803 
L 500 4441 
Q 881 4594 1212 4672 
Q 1544 4750 1819 4750 
Q 2544 4750 2975 4387 
Q 3406 4025 3406 3419 
Q 3406 3131 3298 2873 
Q 3191 2616 2906 2266 
Q 2828 2175 2409 1742 
Q 1991 1309 1228 531 
z
" transform="scale(0.015625)"/>
       </defs>
       <use xlink:href="#DejaVuSans-32"/>
       <use xlink:href="#DejaVuSans-2e" x="63.623047"/>
       <use xlink:href="#DejaVuSans-30" x="95.410156"/>
      </g>
     </g>
    </g>
    <g id="xtick_5">
     <g id="line2d_5">
      <g>
       <use xlink:href="#m5d64412560" x="178.632" y="249.6984" style="stroke: #000000; stroke-width: 0.8"/>
      </g>
     </g>
     <g id="text_5">
      <!-- 2.5 -->
      <g transform="translate(170.680438 264.296838) scale(0.1 -0.1)">
       <use xlink:href="#DejaVuSans-32"/>
       <use xlink:href="#DejaVuSans-2e" x="63.623047"/>
       <use xlink:href="#DejaVuSans-35" x="95.410156"/>
      </g>
     </g>
    </g>
    <g id="text_6">
     <!-- Время, мин -->
     <g transform="translate(71.792094 277.974963) scale(0.1 -0.1)">
      <defs>
       <path id="DejaVuSans-412" d="M 1259 2228 
L 1259 519 
L 2272 519 
Q 2781 519 3026 730 
Q 3272 941 3272 1375 
Q 3272 1813 3026 2020 
Q 2781 2228 2272 2228 
L 1259 2228 
z
M 1259 4147 
L 1259 2741 
L 2194 2741 
Q 2656 2741 2882 2914 
Q 3109 3088 3109 3444 
Q 3109 3797 2882 3972 
Q 2656 4147 2194 4147 
L 1259 4147 
z
M 628 4666 
L 2241 4666 
Q 2963 4666 3353 4366 
Q 3744 4066 3744 3513 
Q 3744 3084 3544 2831 
Q 3344 2578 2956 2516 
Q 3422 2416 3680 2098 
Q 3938 1781 3938 1306 
Q 3938 681 3513 340 
Q 3088 0 2303 0 
L 628 0 
L 628 4666 
z
" transform="scale(0.015625)"/>
       <path id="DejaVuSans-440" d="M 1159 525 
L 1159 -1331 
L 581 -1331 
L 581 3500 
L 1159 3500 
L 1159 2969 
Q 1341 3281 1617 3432 
Q 1894 3584 2278 3584 
Q 2916 3584 3314 3078 
Q 3713 2572 3713 1747 
Q 3713 922 3314 415 
Q 2916 -91 2278 -91 
Q 1894 -91 1617 61 
Q 1341 213 1159 525 
z
M 3116 1747 
Q 3116 2381 2855 2742 
Q 2594 3103 2138 3103 
Q 1681 3103 1420 2742 
Q 1159 2381 1159 1747 
Q 1159 1113 1420 752 
Q 1681 391 2138 391 
Q 2594 391 2855 752 
Q 3116 1113 3116 1747 
z
" transform="scale(0.015625)"/>
       <path id="DejaVuSans-435" d="M 3597 1894 
L 3597 1613 
L 953 1613 
Q 991 1019 1311 708 
Q 1631 397 2203 397 
Q 2534 397 2845 478 
Q 3156 559 3463 722 
L 3463 178 
Q 3153 47 2828 -22 
Q 2503 -91 2169 -91 
Q 1331 -91 842 396 
Q 353 884 353 1716 
Q 353 2575 817 3079 
Q 1281 3584 2069 3584 
Q 2775 3584 3186 3129 
Q 3597 2675 3597 1894 
z
M 3022 2063 
Q 3016 2534 2758 2815 
Q 2500 3097 2075 3097 
Q 1594 3097 1305 2825 
Q 1016 2553 972 2059 
L 3022 2063 
z
" transform="scale(0.015625)"/>
       <path id="DejaVuSans-43c" d="M 581 3500 
L 1422 3500 
L 2416 1156 
L 3413 3500 
L 4247 3500 
L 4247 0 
L 3669 0 
L 3669 2950 
L 2703 672 
L 2128 672 
L 1159 2950 
L 1159 0 
L 581 0 
L 581 3500 
z
" transform="scale(0.015625)"/>
       <path id="DejaVuSans-44f" d="M 1181 2491 
Q 1181 2231 1381 2084 
Q 1581 1938 1953 1938 
L 2728 1938 
L 2728 3041 
L 1953 3041 
Q 1581 3041 1381 2897 
Q 1181 2753 1181 2491 
z
M 363 0 
L 1431 1534 
Q 1069 1616 828 1830 
Q 588 2044 588 2491 
Q 588 2997 923 3248 
Q 1259 3500 1938 3500 
L 3306 3500 
L 3306 0 
L 2728 0 
L 2728 1478 
L 2013 1478 
L 981 0 
L 363 0 
z
" transform="scale(0.015625)"/>
       <path id="DejaVuSans-2c" d="M 750 794 
L 1409 794 
L 1409 256 
L 897 -744 
L 494 -744 
L 750 256 
L 750 794 
z
" transform="scale(0.015625)"/>
       <path id="DejaVuSans-20" transform="scale(0.015625)"/>
       <path id="DejaVuSans-438" d="M 3578 3500 
L 3578 0 
L 3006 0 
L 3006 2809 
L 1319 0 
L 581 0 
L 581 3500 
L 1153 3500 
L 1153 697 
L 2838 3500 
L 3578 3500 
z
" transform="scale(0.015625)"/>
       <path id="DejaVuSans-43d" d="M 581 3500 
L 1159 3500 
L 1159 2072 
L 3025 2072 
L 3025 3500 
L 3603 3500 
L 3603 0 
L 3025 0 
L 3025 1613 
L 1159 1613 
L 1159 0 
L 581 0 
L 581 3500 
z
" transform="scale(0.015625)"/>
      </defs>
      <use xlink:href="#DejaVuSans-412"/>
      <use xlink:href="#DejaVuSans-440" x="68.603516"/>
      <use xlink:href="#DejaVuSans-435" x="132.080078"/>
      <use xlink:href="#DejaVuSans-43c" x="193.603516"/>
      <use xlink:href="#DejaVuSans-44f" x="269.042969"/>
      <use xlink:href="#DejaVuSans-2c" x="329.199219"/>
      <use xlink:href="#DejaVuSans-20" x="360.986328"/>
      <use xlink:href="#DejaVuSans-43c" x="392.773438"/>
      <use xlink:href="#DejaVuSans-438" x="468.212891"/>
      <use xlink:href="#DejaVuSans-43d" x="533.203125"/>
     </g>
    </g>
   </g>
   <g id="matplotlib.axis_2">
    <g id="ytick_1">
     <g id="line2d_6">
      <defs>
       <path id="mbc92cc4c2f" d="M 0 0 
L -3.5 0 
" style="stroke: #000000; stroke-width: 0.8"/>
      </defs>
      <g>
       <use xlink:href="#mbc92cc4c2f" x="24.81" y="228.412147" style="stroke: #000000; stroke-width: 0.8"/>
      </g>
     </g>
     <g id="text_7">
      <!-- 5000 -->
      <g transform="translate(-7.64 232.211366) scale(0.1 -0.1)">
       <use xlink:href="#DejaVuSans-35"/>
       <use xlink:href="#DejaVuSans-30" x="63.623047"/>
       <use xlink:href="#DejaVuSans-30" x="127.246094"/>
       <use xlink:href="#DejaVuSans-30" x="190.869141"/>
      </g>
     </g>
    </g>
    <g id="ytick_2">
     <g id="line2d_7">
      <g>
       <use xlink:href="#mbc92cc4c2f" x="24.81" y="198.944207" style="stroke: #000000; stroke-width: 0.8"/>
      </g>
     </g>
     <g id="text_8">
      <!-- 7500 -->
      <g transform="translate(-7.64 202.743426) scale(0.1 -0.1)">
       <defs>
        <path id="DejaVuSans-37" d="M 525 4666 
L 3525 4666 
L 3525 4397 
L 1831 0 
L 1172 0 
L 2766 4134 
L 525 4134 
L 525 4666 
z
" transform="scale(0.015625)"/>
       </defs>
       <use xlink:href="#DejaVuSans-37"/>
       <use xlink:href="#DejaVuSans-35" x="63.623047"/>
       <use xlink:href="#DejaVuSans-30" x="127.246094"/>
       <use xlink:href="#DejaVuSans-30" x="190.869141"/>
      </g>
     </g>
    </g>
    <g id="ytick_3">
     <g id="line2d_8">
      <g>
       <use xlink:href="#mbc92cc4c2f" x="24.81" y="169.476267" style="stroke: #000000; stroke-width: 0.8"/>
      </g>
     </g>
     <g id="text_9">
      <!-- 10000 -->
      <g transform="translate(-14.0025 173.275486) scale(0.1 -0.1)">
       <use xlink:href="#DejaVuSans-31"/>
       <use xlink:href="#DejaVuSans-30" x="63.623047"/>
       <use xlink:href="#DejaVuSans-30" x="127.246094"/>
       <use xlink:href="#DejaVuSans-30" x="190.869141"/>
       <use xlink:href="#DejaVuSans-30" x="254.492188"/>
      </g>
     </g>
    </g>
    <g id="ytick_4">
     <g id="line2d_9">
      <g>
       <use xlink:href="#mbc92cc4c2f" x="24.81" y="140.008328" style="stroke: #000000; stroke-width: 0.8"/>
      </g>
     </g>
     <g id="text_10">
      <!-- 12500 -->
      <g transform="translate(-14.0025 143.807546) scale(0.1 -0.1)">
       <use xlink:href="#DejaVuSans-31"/>
       <use xlink:href="#DejaVuSans-32" x="63.623047"/>
       <use xlink:href="#DejaVuSans-35" x="127.246094"/>
       <use xlink:href="#DejaVuSans-30" x="190.869141"/>
       <use xlink:href="#DejaVuSans-30" x="254.492188"/>
      </g>
     </g>
    </g>
    <g id="ytick_5">
     <g id="line2d_10">
      <g>
       <use xlink:href="#mbc92cc4c2f" x="24.81" y="110.540388" style="stroke: #000000; stroke-width: 0.8"/>
      </g>
     </g>
     <g id="text_11">
      <!-- 15000 -->
      <g transform="translate(-14.0025 114.339607) scale(0.1 -0.1)">
       <use xlink:href="#DejaVuSans-31"/>
       <use xlink:href="#DejaVuSans-35" x="63.623047"/>
       <use xlink:href="#DejaVuSans-30" x="127.246094"/>
       <use xlink:href="#DejaVuSans-30" x="190.869141"/>
       <use xlink:href="#DejaVuSans-30" x="254.492188"/>
      </g>
     </g>
    </g>
    <g id="ytick_6">
     <g id="line2d_11">
      <g>
       <use xlink:href="#mbc92cc4c2f" x="24.81" y="81.072448" style="stroke: #000000; stroke-width: 0.8"/>
      </g>
     </g>
     <g id="text_12">
      <!-- 17500 -->
      <g transform="translate(-14.0025 84.871667) scale(0.1 -0.1)">
       <use xlink:href="#DejaVuSans-31"/>
       <use xlink:href="#DejaVuSans-37" x="63.623047"/>
       <use xlink:href="#DejaVuSans-35" x="127.246094"/>
       <use xlink:href="#DejaVuSans-30" x="190.869141"/>
       <use xlink:href="#DejaVuSans-30" x="254.492188"/>
      </g>
     </g>
    </g>
    <g id="ytick_7">
     <g id="line2d_12">
      <g>
       <use xlink:href="#mbc92cc4c2f" x="24.81" y="51.604508" style="stroke: #000000; stroke-width: 0.8"/>
      </g>
     </g>
     <g id="text_13">
      <!-- 20000 -->
      <g transform="translate(-14.0025 55.403727) scale(0.1 -0.1)">
       <use xlink:href="#DejaVuSans-32"/>
       <use xlink:href="#DejaVuSans-30" x="63.623047"/>
       <use xlink:href="#DejaVuSans-30" x="127.246094"/>
       <use xlink:href="#DejaVuSans-30" x="190.869141"/>
       <use xlink:href="#DejaVuSans-30" x="254.492188"/>
      </g>
     </g>
    </g>
    <g id="text_14">
     <!-- Площадь кальциевого события, мкм^2 -->
     <g transform="translate(-20.082188 245.825769) rotate(-90) scale(0.1 -0.1)">
      <defs>
       <path id="DejaVuSans-41f" d="M 4184 4666 
L 4184 0 
L 3553 0 
L 3553 4134 
L 1259 4134 
L 1259 0 
L 628 0 
L 628 4666 
L 4184 4666 
z
" transform="scale(0.015625)"/>
       <path id="DejaVuSans-43b" d="M 238 0 
L 238 478 
Q 806 566 981 959 
Q 1194 1513 1194 2928 
L 1194 3500 
L 3559 3500 
L 3559 0 
L 2984 0 
L 2984 3041 
L 1769 3041 
L 1769 2694 
Q 1769 1344 1494 738 
Q 1200 91 238 0 
z
" transform="scale(0.015625)"/>
       <path id="DejaVuSans-43e" d="M 1959 3097 
Q 1497 3097 1228 2736 
Q 959 2375 959 1747 
Q 959 1119 1226 758 
Q 1494 397 1959 397 
Q 2419 397 2687 759 
Q 2956 1122 2956 1747 
Q 2956 2369 2687 2733 
Q 2419 3097 1959 3097 
z
M 1959 3584 
Q 2709 3584 3137 3096 
Q 3566 2609 3566 1747 
Q 3566 888 3137 398 
Q 2709 -91 1959 -91 
Q 1206 -91 779 398 
Q 353 888 353 1747 
Q 353 2609 779 3096 
Q 1206 3584 1959 3584 
z
" transform="scale(0.015625)"/>
       <path id="DejaVuSans-449" d="M 5275 0 
L 581 0 
L 581 3500 
L 1159 3500 
L 1159 459 
L 2638 459 
L 2638 3500 
L 3216 3500 
L 3216 459 
L 4697 459 
L 4697 3500 
L 5275 3500 
L 5275 459 
L 5734 459 
L 5734 -884 
L 5275 -884 
L 5275 0 
z
" transform="scale(0.015625)"/>
       <path id="DejaVuSans-430" d="M 2194 1759 
Q 1497 1759 1228 1600 
Q 959 1441 959 1056 
Q 959 750 1161 570 
Q 1363 391 1709 391 
Q 2188 391 2477 730 
Q 2766 1069 2766 1631 
L 2766 1759 
L 2194 1759 
z
M 3341 1997 
L 3341 0 
L 2766 0 
L 2766 531 
Q 2569 213 2275 61 
Q 1981 -91 1556 -91 
Q 1019 -91 701 211 
Q 384 513 384 1019 
Q 384 1609 779 1909 
Q 1175 2209 1959 2209 
L 2766 2209 
L 2766 2266 
Q 2766 2663 2505 2880 
Q 2244 3097 1772 3097 
Q 1472 3097 1187 3025 
Q 903 2953 641 2809 
L 641 3341 
Q 956 3463 1253 3523 
Q 1550 3584 1831 3584 
Q 2591 3584 2966 3190 
Q 3341 2797 3341 1997 
z
" transform="scale(0.015625)"/>
       <path id="DejaVuSans-434" d="M 1384 459 
L 3053 459 
L 3053 3041 
L 1844 3041 
L 1844 2603 
Q 1844 1316 1475 628 
L 1384 459 
z
M 550 459 
Q 834 584 959 850 
Q 1266 1509 1266 2838 
L 1266 3500 
L 3631 3500 
L 3631 459 
L 4091 459 
L 4091 -884 
L 3631 -884 
L 3631 0 
L 794 0 
L 794 -884 
L 334 -884 
L 334 459 
L 550 459 
z
" transform="scale(0.015625)"/>
       <path id="DejaVuSans-44c" d="M 2781 1038 
Q 2781 1319 2576 1466 
Q 2372 1613 1978 1613 
L 1159 1613 
L 1159 459 
L 1978 459 
Q 2372 459 2576 607 
Q 2781 756 2781 1038 
z
M 581 3500 
L 1159 3500 
L 1159 2072 
L 2003 2072 
Q 2672 2072 3033 1817 
Q 3394 1563 3394 1038 
Q 3394 513 3033 256 
Q 2672 0 2003 0 
L 581 0 
L 581 3500 
z
" transform="scale(0.015625)"/>
       <path id="DejaVuSans-43a" d="M 581 3500 
L 1153 3500 
L 1153 1856 
L 2775 3500 
L 3481 3500 
L 2144 2147 
L 3653 0 
L 3009 0 
L 1769 1766 
L 1153 1141 
L 1153 0 
L 581 0 
L 581 3500 
z
" transform="scale(0.015625)"/>
       <path id="DejaVuSans-446" d="M 3603 0 
L 581 0 
L 581 3500 
L 1159 3500 
L 1159 459 
L 3025 459 
L 3025 3500 
L 3603 3500 
L 3603 459 
L 4063 459 
L 4063 -884 
L 3603 -884 
L 3603 0 
z
" transform="scale(0.015625)"/>
       <path id="DejaVuSans-432" d="M 1156 1613 
L 1156 459 
L 1975 459 
Q 2369 459 2575 607 
Q 2781 756 2781 1038 
Q 2781 1319 2575 1466 
Q 2369 1613 1975 1613 
L 1156 1613 
z
M 1156 3041 
L 1156 2072 
L 1913 2072 
Q 2238 2072 2444 2201 
Q 2650 2331 2650 2563 
Q 2650 2794 2444 2917 
Q 2238 3041 1913 3041 
L 1156 3041 
z
M 581 3500 
L 1950 3500 
Q 2566 3500 2897 3275 
Q 3228 3050 3228 2634 
Q 3228 2313 3059 2123 
Q 2891 1934 2559 1888 
Q 2956 1813 3175 1575 
Q 3394 1338 3394 981 
Q 3394 513 3033 256 
Q 2672 0 2003 0 
L 581 0 
L 581 3500 
z
" transform="scale(0.015625)"/>
       <path id="DejaVuSans-433" d="M 581 0 
L 581 3500 
L 3050 3500 
L 3050 3041 
L 1159 3041 
L 1159 0 
L 581 0 
z
" transform="scale(0.015625)"/>
       <path id="DejaVuSans-441" d="M 3122 3366 
L 3122 2828 
Q 2878 2963 2633 3030 
Q 2388 3097 2138 3097 
Q 1578 3097 1268 2742 
Q 959 2388 959 1747 
Q 959 1106 1268 751 
Q 1578 397 2138 397 
Q 2388 397 2633 464 
Q 2878 531 3122 666 
L 3122 134 
Q 2881 22 2623 -34 
Q 2366 -91 2075 -91 
Q 1284 -91 818 406 
Q 353 903 353 1747 
Q 353 2603 823 3093 
Q 1294 3584 2113 3584 
Q 2378 3584 2631 3529 
Q 2884 3475 3122 3366 
z
" transform="scale(0.015625)"/>
       <path id="DejaVuSans-431" d="M 1991 3584 
Q 2741 3584 3169 3096 
Q 3597 2609 3597 1747 
Q 3597 888 3169 398 
Q 2741 -91 1991 -91 
Q 1238 -91 822 384 
Q 406 859 384 1747 
L 366 2463 
Q 350 2834 350 2963 
Q 350 3463 531 3831 
Q 816 4409 1308 4659 
Q 1800 4909 2625 4916 
Q 3006 4919 3175 4972 
L 3334 4516 
Q 3181 4453 3041 4450 
L 2259 4397 
Q 1866 4369 1628 4231 
Q 1006 3866 947 3388 
L 925 3213 
Q 1331 3584 1991 3584 
z
M 1991 3097 
Q 1528 3097 1259 2736 
Q 991 2375 991 1747 
Q 991 1119 1258 758 
Q 1525 397 1991 397 
Q 2450 397 2719 759 
Q 2988 1122 2988 1747 
Q 2988 2369 2719 2733 
Q 2450 3097 1991 3097 
z
" transform="scale(0.015625)"/>
       <path id="DejaVuSans-44b" d="M 3907 3500 
L 4482 3500 
L 4482 0 
L 3907 0 
L 3907 3500 
z
M 4195 3584 
L 4195 3584 
z
M 2781 1038 
Q 2781 1319 2576 1466 
Q 2372 1613 1978 1613 
L 1159 1613 
L 1159 459 
L 1978 459 
Q 2372 459 2576 607 
Q 2781 756 2781 1038 
z
M 581 3500 
L 1159 3500 
L 1159 2072 
L 2003 2072 
Q 2672 2072 3033 1817 
Q 3394 1563 3394 1038 
Q 3394 513 3033 256 
Q 2672 0 2003 0 
L 581 0 
L 581 3500 
z
" transform="scale(0.015625)"/>
       <path id="DejaVuSans-442" d="M 188 3500 
L 3541 3500 
L 3541 3041 
L 2147 3041 
L 2147 0 
L 1581 0 
L 1581 3041 
L 188 3041 
L 188 3500 
z
" transform="scale(0.015625)"/>
       <path id="DejaVuSans-5e" d="M 2988 4666 
L 4684 2925 
L 4056 2925 
L 2681 4159 
L 1306 2925 
L 678 2925 
L 2375 4666 
L 2988 4666 
z
" transform="scale(0.015625)"/>
      </defs>
      <use xlink:href="#DejaVuSans-41f"/>
      <use xlink:href="#DejaVuSans-43b" x="75.195312"/>
      <use xlink:href="#DejaVuSans-43e" x="139.111328"/>
      <use xlink:href="#DejaVuSans-449" x="200.292969"/>
      <use xlink:href="#DejaVuSans-430" x="294.482422"/>
      <use xlink:href="#DejaVuSans-434" x="355.761719"/>
      <use xlink:href="#DejaVuSans-44c" x="424.902344"/>
      <use xlink:href="#DejaVuSans-20" x="483.837891"/>
      <use xlink:href="#DejaVuSans-43a" x="515.625"/>
      <use xlink:href="#DejaVuSans-430" x="576.025391"/>
      <use xlink:href="#DejaVuSans-43b" x="637.304688"/>
      <use xlink:href="#DejaVuSans-44c" x="701.220703"/>
      <use xlink:href="#DejaVuSans-446" x="760.15625"/>
      <use xlink:href="#DejaVuSans-438" x="828.222656"/>
      <use xlink:href="#DejaVuSans-435" x="893.212891"/>
      <use xlink:href="#DejaVuSans-432" x="954.736328"/>
      <use xlink:href="#DejaVuSans-43e" x="1013.671875"/>
      <use xlink:href="#DejaVuSans-433" x="1074.853516"/>
      <use xlink:href="#DejaVuSans-43e" x="1127.392578"/>
      <use xlink:href="#DejaVuSans-20" x="1188.574219"/>
      <use xlink:href="#DejaVuSans-441" x="1220.361328"/>
      <use xlink:href="#DejaVuSans-43e" x="1275.341797"/>
      <use xlink:href="#DejaVuSans-431" x="1336.523438"/>
      <use xlink:href="#DejaVuSans-44b" x="1398.193359"/>
      <use xlink:href="#DejaVuSans-442" x="1477.148438"/>
      <use xlink:href="#DejaVuSans-438" x="1535.400391"/>
      <use xlink:href="#DejaVuSans-44f" x="1600.390625"/>
      <use xlink:href="#DejaVuSans-2c" x="1660.546875"/>
      <use xlink:href="#DejaVuSans-20" x="1692.333984"/>
      <use xlink:href="#DejaVuSans-43c" x="1724.121094"/>
      <use xlink:href="#DejaVuSans-43a" x="1799.560547"/>
      <use xlink:href="#DejaVuSans-43c" x="1859.960938"/>
      <use xlink:href="#DejaVuSans-5e" x="1935.400391"/>
      <use xlink:href="#DejaVuSans-32" x="2019.189453"/>
     </g>
    </g>
   </g>
   <g id="line2d_13">
    <path d="M 24.81 64.098915 
L 25.324455 48.498241 
L 25.83891 107.073571 
L 26.353365 106.373275 
L 26.867819 108.19682 
L 27.382274 111.698305 
L 27.896729 116.870795 
L 28.925639 131.764238 
L 29.954548 146.442739 
L 30.469003 152.440331 
L 30.983458 47.33339 
L 31.497913 157.813897 
L 32.012368 161.315382 
L 32.526823 161.65513 
L 33.041278 158.347787 
L 33.555732 153.092093 
L 35.099097 128.318223 
L 35.613552 121.752072 
L 36.128007 116.815326 
L 36.642462 47.153116 
L 37.156916 113.230637 
L 38.700281 104.119844 
L 39.214736 101.78321 
L 39.729191 100.209275 
L 40.243645 99.62685 
L 40.7581 100.049801 
L 41.272555 101.089846 
L 41.78701 103.017396 
L 42.301465 47.596868 
L 42.81592 105.243092 
L 43.330375 107.58666 
L 43.844829 111.476428 
L 44.873739 124.012437 
L 45.388194 132.256526 
L 46.417104 156.205294 
L 47.446013 186.255659 
L 47.960468 48.186227 
L 48.474923 201.065899 
L 48.989378 214.024859 
L 49.503833 222.525493 
L 50.018288 227.843589 
L 50.532742 231.220268 
L 51.047197 233.064615 
L 51.561652 234.02839 
L 52.076107 233.855049 
L 52.590562 232.281114 
L 53.105017 228.599355 
L 53.619472 48.824122 
L 54.133926 221.755859 
L 55.162836 201.107501 
L 56.191746 181.291178 
L 56.706201 172.790544 
L 57.220656 166.411602 
L 57.73511 162.681307 
L 58.249565 161.343116 
L 58.76402 162.882383 
L 59.278475 48.775586 
L 59.79293 165.593433 
L 63.394114 192.558331 
L 64.423023 198.528189 
L 64.937478 48.151559 
L 65.451933 201.183771 
L 66.480843 206.910951 
L 69.567572 229.646334 
L 70.082027 232.322716 
L 70.596482 47.035244 
L 71.110936 234.056124 
L 71.625391 235.505253 
L 72.139846 236.531431 
L 72.654301 237.12079 
L 73.168756 237.183193 
L 73.683211 236.711706 
L 74.197666 235.872736 
L 74.71212 234.652417 
L 75.226575 232.856606 
L 75.74103 231.49068 
L 76.255485 45.627717 
L 76.76994 230.055418 
L 78.313304 223.55167 
L 81.400033 200.975762 
L 81.914488 63.204476 
L 82.428943 44.372729 
L 82.943398 197.814025 
L 83.457853 195.831006 
L 85.001217 188.120806 
L 86.030127 180.452208 
L 86.544582 175.841342 
L 87.573492 165.163548 
L 88.087946 42.459047 
L 88.602401 161.017235 
L 89.631311 149.923423 
L 91.68913 121.869944 
L 92.71804 107.122107 
L 93.232495 101.672271 
L 93.74695 40.725638 
L 94.261405 98.17772 
L 94.77586 95.938157 
L 95.290314 94.877311 
L 96.319224 96.146166 
L 97.348134 98.968155 
L 98.377043 103.107533 
L 98.891498 104.369455 
L 99.405953 38.395938 
L 99.920408 105.159889 
L 100.949318 106.57435 
L 101.463773 107.697598 
L 101.978227 109.396338 
L 102.492682 112.058853 
L 103.007137 115.920887 
L 104.036047 131.015406 
L 104.550502 141.173178 
L 105.064957 36.808136 
L 105.579411 154.72843 
L 106.608321 180.826624 
L 107.637231 201.31551 
L 108.151686 207.250699 
L 108.66614 210.856189 
L 109.180595 213.338429 
L 109.69505 214.836094 
L 110.209505 215.460121 
L 110.72396 35.511546 
L 111.238415 215.376917 
L 111.75287 214.163531 
L 112.267324 212.59653 
L 112.781779 210.551109 
L 113.810689 204.400976 
L 114.325144 201.738461 
L 114.839599 200.240797 
L 115.354054 199.526632 
L 115.868508 198.008167 
L 116.382963 34.450701 
L 116.897418 198.181508 
L 117.411873 199.589035 
L 117.926328 200.525076 
L 118.440783 201.863267 
L 118.955237 204.227635 
L 119.469692 207.673651 
L 120.498602 216.957785 
L 121.527512 227.808921 
L 122.041967 33.688001 
L 122.556421 233.487566 
L 123.585331 242.875705 
L 124.614241 247.424168 
L 125.128696 249.032771 
L 125.643151 249.6984 
L 126.157605 249.448789 
L 126.67206 248.464213 
L 127.186515 246.973482 
L 127.70097 33.6672 
L 128.215425 245.468884 
L 129.758789 238.271773 
L 130.787699 233.404363 
L 131.302154 231.927499 
L 131.816609 231.677888 
L 132.331064 232.433654 
L 132.845518 234.444408 
L 133.359973 33.6672 
L 133.874428 236.35809 
L 134.388883 238.271773 
L 134.903338 240.712412 
L 135.417793 242.327948 
L 135.932247 242.709298 
L 136.446702 242.175408 
L 136.961157 241.135363 
L 137.990067 237.585343 
L 138.504522 234.88816 
L 139.018977 61.692944 
L 139.533431 34.50617 
L 140.047886 232.246446 
L 140.562341 35.712622 
L 141.591251 39.241841 
L 142.105706 41.973692 
L 142.620161 45.357305 
L 143.64907 55.605214 
L 144.67798 69.805295 
L 145.192435 59.980337 
L 145.70689 76.946937 
L 146.221344 82.521577 
L 146.735799 85.704115 
L 147.250254 87.007638 
L 147.764709 86.348943 
L 148.279164 83.762698 
L 149.822528 72.675819 
L 150.336983 69.839963 
L 150.851438 58.350933 
L 151.365893 67.06651 
L 151.880348 65.46484 
L 152.394803 65.173628 
L 153.423712 65.021088 
L 154.967077 67.77374 
L 155.995987 69.902365 
L 156.510441 57.033543 
L 157.024896 70.15891 
L 157.539351 69.195135 
L 158.568261 64.813079 
L 159.082716 63.36395 
L 159.597171 63.107405 
L 160.111625 63.232211 
L 160.62608 62.9826 
L 161.140535 63.357016 
L 161.65499 64.501065 
L 162.169445 55.723086 
L 162.6839 66.310744 
L 163.712809 71.122685 
L 164.741719 80.254279 
L 166.285084 98.600672 
L 167.313993 111.871645 
L 167.828448 53.441921 
L 168.342903 118.229787 
L 169.371813 131.098609 
L 170.915177 151.642964 
L 171.944087 161.918608 
L 172.458542 164.886202 
L 172.972997 167.091098 
L 173.487452 51.091419 
L 174.001906 167.715125 
L 174.516361 166.279863 
L 175.030816 164.012565 
L 175.545271 159.020349 
L 176.059726 152.544336 
L 177.60309 125.031681 
L 178.632 110.568122 
L 178.632 110.568122 
" clip-path="url(#p0b9f82ef31)" style="fill: none; stroke: #ff5733; stroke-width: 2; stroke-linecap: square"/>
   </g>
   <g id="patch_3">
    <path d="M 24.81 249.6984 
L 24.81 33.6672 
" style="fill: none; stroke: #000000; stroke-width: 0.8; stroke-linejoin: miter; stroke-linecap: square"/>
   </g>
   <g id="patch_4">
    <path d="M 178.632 249.6984 
L 178.632 33.6672 
" style="fill: none; stroke: #000000; stroke-width: 0.8; stroke-linejoin: miter; stroke-linecap: square"/>
   </g>
   <g id="patch_5">
    <path d="M 24.81 249.6984 
L 178.632 249.6984 
" style="fill: none; stroke: #000000; stroke-width: 0.8; stroke-linejoin: miter; stroke-linecap: square"/>
   </g>
   <g id="patch_6">
    <path d="M 24.81 33.6672 
L 178.632 33.6672 
" style="fill: none; stroke: #000000; stroke-width: 0.8; stroke-linejoin: miter; stroke-linecap: square"/>
   </g>
   <g id="text_15">
    <!-- Кальциевая активность астроцитов с течением времени -->
    <g transform="translate(-79.25025 27.6672) scale(0.12 -0.12)">
     <defs>
      <path id="DejaVuSans-41a" d="M 628 4666 
L 1259 4666 
L 1259 2359 
L 3516 4666 
L 4325 4666 
L 2522 2822 
L 4419 0 
L 3731 0 
L 2113 2403 
L 1259 1531 
L 1259 0 
L 628 0 
L 628 4666 
z
" transform="scale(0.015625)"/>
      <path id="DejaVuSans-447" d="M 2625 0 
L 2625 1472 
L 1553 1472 
Q 1075 1472 756 1769 
Q 469 2038 469 2613 
L 469 3500 
L 1044 3500 
L 1044 2666 
Q 1044 2300 1206 2116 
Q 1372 1931 1697 1931 
L 2625 1931 
L 2625 3500 
L 3200 3500 
L 3200 0 
L 2625 0 
z
" transform="scale(0.015625)"/>
     </defs>
     <use xlink:href="#DejaVuSans-41a"/>
     <use xlink:href="#DejaVuSans-430" x="70.996094"/>
     <use xlink:href="#DejaVuSans-43b" x="132.275391"/>
     <use xlink:href="#DejaVuSans-44c" x="196.191406"/>
     <use xlink:href="#DejaVuSans-446" x="255.126953"/>
     <use xlink:href="#DejaVuSans-438" x="323.193359"/>
     <use xlink:href="#DejaVuSans-435" x="388.183594"/>
     <use xlink:href="#DejaVuSans-432" x="449.707031"/>
     <use xlink:href="#DejaVuSans-430" x="508.642578"/>
     <use xlink:href="#DejaVuSans-44f" x="569.921875"/>
     <use xlink:href="#DejaVuSans-20" x="630.078125"/>
     <use xlink:href="#DejaVuSans-430" x="661.865234"/>
     <use xlink:href="#DejaVuSans-43a" x="723.144531"/>
     <use xlink:href="#DejaVuSans-442" x="783.544922"/>
     <use xlink:href="#DejaVuSans-438" x="841.796875"/>
     <use xlink:href="#DejaVuSans-432" x="906.787109"/>
     <use xlink:href="#DejaVuSans-43d" x="965.722656"/>
     <use xlink:href="#DejaVuSans-43e" x="1031.103516"/>
     <use xlink:href="#DejaVuSans-441" x="1092.285156"/>
     <use xlink:href="#DejaVuSans-442" x="1147.265625"/>
     <use xlink:href="#DejaVuSans-44c" x="1205.517578"/>
     <use xlink:href="#DejaVuSans-20" x="1264.453125"/>
     <use xlink:href="#DejaVuSans-430" x="1296.240234"/>
     <use xlink:href="#DejaVuSans-441" x="1357.519531"/>
     <use xlink:href="#DejaVuSans-442" x="1412.5"/>
     <use xlink:href="#DejaVuSans-440" x="1470.751953"/>
     <use xlink:href="#DejaVuSans-43e" x="1534.228516"/>
     <use xlink:href="#DejaVuSans-446" x="1595.410156"/>
     <use xlink:href="#DejaVuSans-438" x="1663.476562"/>
     <use xlink:href="#DejaVuSans-442" x="1728.466797"/>
     <use xlink:href="#DejaVuSans-43e" x="1786.71875"/>
     <use xlink:href="#DejaVuSans-432" x="1847.900391"/>
     <use xlink:href="#DejaVuSans-20" x="1906.835938"/>
     <use xlink:href="#DejaVuSans-441" x="1938.623047"/>
     <use xlink:href="#DejaVuSans-20" x="1993.603516"/>
     <use xlink:href="#DejaVuSans-442" x="2025.390625"/>
     <use xlink:href="#DejaVuSans-435" x="2083.642578"/>
     <use xlink:href="#DejaVuSans-447" x="2145.166016"/>
     <use xlink:href="#DejaVuSans-435" x="2204.248047"/>
     <use xlink:href="#DejaVuSans-43d" x="2265.771484"/>
     <use xlink:href="#DejaVuSans-438" x="2331.152344"/>
     <use xlink:href="#DejaVuSans-435" x="2396.142578"/>
     <use xlink:href="#DejaVuSans-43c" x="2457.666016"/>
     <use xlink:href="#DejaVuSans-20" x="2533.105469"/>
     <use xlink:href="#DejaVuSans-432" x="2564.892578"/>
     <use xlink:href="#DejaVuSans-440" x="2623.828125"/>
     <use xlink:href="#DejaVuSans-435" x="2687.304688"/>
     <use xlink:href="#DejaVuSans-43c" x="2748.828125"/>
     <use xlink:href="#DejaVuSans-435" x="2824.267578"/>
     <use xlink:href="#DejaVuSans-43d" x="2885.791016"/>
     <use xlink:href="#DejaVuSans-438" x="2951.171875"/>
    </g>
   </g>
   <g id="legend_1">
    <g id="patch_7">
     <path d="M 106.561688 56.345325 
L 171.632 56.345325 
Q 173.632 56.345325 173.632 54.345325 
L 173.632 40.6672 
Q 173.632 38.6672 171.632 38.6672 
L 106.561688 38.6672 
Q 104.561688 38.6672 104.561688 40.6672 
L 104.561688 54.345325 
Q 104.561688 56.345325 106.561688 56.345325 
z
" style="fill: #ffffff; opacity: 0.8; stroke: #cccccc; stroke-linejoin: miter"/>
    </g>
    <g id="line2d_14">
     <path d="M 108.561688 46.765637 
L 118.561688 46.765637 
L 128.561688 46.765637 
" style="fill: none; stroke: #ff5733; stroke-width: 2; stroke-linecap: square"/>
    </g>
    <g id="text_16">
     <!-- Линия -->
     <g transform="translate(136.561688 50.265637) scale(0.1 -0.1)">
      <defs>
       <path id="DejaVuSans-41b" d="M 263 0 
L 263 531 
Q 941 678 1134 1191 
Q 1406 1997 1406 3872 
L 1406 4666 
L 4181 4666 
L 4181 0 
L 3550 0 
L 3550 4134 
L 2034 4134 
L 2034 3559 
Q 2034 1791 1716 966 
Q 1409 175 263 0 
z
" transform="scale(0.015625)"/>
      </defs>
      <use xlink:href="#DejaVuSans-41b"/>
      <use xlink:href="#DejaVuSans-438" x="75.195312"/>
      <use xlink:href="#DejaVuSans-43d" x="140.185547"/>
      <use xlink:href="#DejaVuSans-438" x="205.566406"/>
      <use xlink:href="#DejaVuSans-44f" x="270.556641"/>
     </g>
    </g>
   </g>
  </g>
 </g>
 <defs>
  <clipPath id="p0b9f82ef31">
   <rect x="24.81" y="33.6672" width="153.822" height="216.0312"/>
  </clipPath>
 </defs>
</svg>
